<svg xmlns="http://www.w3.org/2000/svg" xmlns:xlink="http://www.w3.org/1999/xlink" contentStyleType="text/css" height="1177px" preserveAspectRatio="none" style="width:643px;height:1177px;background:#FEFEFE;" version="1.1" viewBox="0 0 643 1177" width="643px" zoomAndPan="magnify"><defs/><g><rect fill="#FEFEFE" height="1177" style="stroke:none;stroke-width:1.0;" width="643" x="0" y="0"/><text fill="#000000" font-family="Verdana" font-size="22" font-weight="bold" lengthAdjust="spacing" textLength="376" x="132" y="35.4209">Identity Development Journey</text><ellipse cx="308" cy="61.6094" fill="#FFFFFF" rx="10" ry="10" style="stroke:#000000;stroke-width:1.0;"/><path d="M434,96.0273 L434,104.5938 L414,108.5938 L434,112.5938 L434,121.1602 A0,0 0 0 0 434,121.1602 L636,121.1602 A0,0 0 0 0 636,121.1602 L636,106.0273 L626,96.0273 L434,96.0273 A0,0 0 0 0 434,96.0273 " fill="#FFFFFF" style="stroke:#000000;stroke-width:1.0;"/><path d="M626,96.0273 L626,106.0273 L636,106.0273 L626,96.0273 " fill="#FFFFFF" style="stroke:#000000;stroke-width:1.0;"/><text fill="#000000" font-family="Verdana" font-size="13" lengthAdjust="spacing" textLength="181" x="440" y="113.0942">Beginning of identity journey</text><rect fill="#FFFFFF" height="33.9688" rx="12.5" ry="12.5" style="stroke:#000000;stroke-width:1.0;" width="212" x="202" y="91.6094"/><text fill="#000000" font-family="Verdana" font-size="12" lengthAdjust="spacing" textLength="192" x="212" y="112.748">Child receives puppet at age 6</text><rect fill="#FFFFFF" height="47.9375" rx="12.5" ry="12.5" style="stroke:#000000;stroke-width:1.0;" width="152" x="232" y="145.5781"/><text fill="#000000" font-family="Verdana" font-size="12" lengthAdjust="spacing" textLength="132" x="242" y="166.7168">Child designs puppet</text><text fill="#000000" font-family="Verdana" font-size="12" lengthAdjust="spacing" textLength="131" x="242" y="180.6855">to look/feel like them</text><path d="M5,203.5156 L5,258.9141 A0,0 0 0 0 5,258.9141 L200,258.9141 A0,0 0 0 0 200,258.9141 L200,235.2148 L220,231.2148 L200,227.2148 L200,213.5156 L190,203.5156 L5,203.5156 A0,0 0 0 0 5,203.5156 " fill="#FFFFFF" style="stroke:#000000;stroke-width:1.0;"/><path d="M190,203.5156 L190,213.5156 L200,213.5156 L190,203.5156 " fill="#FFFFFF" style="stroke:#000000;stroke-width:1.0;"/><text fill="#000000" font-family="Verdana" font-size="13" lengthAdjust="spacing" textLength="165" x="11" y="220.5825">- Puppet becomes "them"</text><text fill="#000000" font-family="Verdana" font-size="13" lengthAdjust="spacing" textLength="174" x="11" y="235.7153">- Safe space for expression</text><text fill="#000000" font-family="Verdana" font-size="13" lengthAdjust="spacing" textLength="142" x="11" y="250.8481">- No forcing or rushing</text><rect fill="#ADD8E6" height="33.9688" rx="12.5" ry="12.5" style="stroke:#000000;stroke-width:1.0;" width="176" x="220" y="214.2305"/><text fill="#000000" font-family="Verdana" font-size="12" lengthAdjust="spacing" textLength="156" x="230" y="235.3691">Identity Anchoring Phase</text><rect fill="#FFFFFF" height="33.9688" rx="12.5" ry="12.5" style="stroke:#000000;stroke-width:1.0;" width="225" x="195.5" y="334.6245"/><text fill="#000000" font-family="Verdana" font-size="12" lengthAdjust="spacing" textLength="205" x="205.5" y="355.7632">Express feelings through puppet</text><rect fill="#FFFFFF" height="33.9688" rx="12.5" ry="12.5" style="stroke:#000000;stroke-width:1.0;" width="205" x="205.5" y="388.5933"/><text fill="#000000" font-family="Verdana" font-size="12" lengthAdjust="spacing" textLength="185" x="215.5" y="409.7319">Puppet interactions recorded</text><rect fill="#FFFFFF" height="33.9688" rx="12.5" ry="12.5" style="stroke:#000000;stroke-width:1.0;" width="182" x="217" y="442.562"/><text fill="#000000" font-family="Verdana" font-size="12" lengthAdjust="spacing" textLength="162" x="227" y="463.7007">Patterns begin to emerge</text><rect fill="#90EE90" height="33.9688" rx="12.5" ry="12.5" style="stroke:#000000;stroke-width:1.0;" width="187" x="214.5" y="544.9331"/><text fill="#000000" font-family="Verdana" font-size="12" lengthAdjust="spacing" textLength="167" x="224.5" y="566.0718">Bridge Construction Phase</text><rect fill="#FFFFFF" height="33.9688" rx="12.5" ry="12.5" style="stroke:#000000;stroke-width:1.0;" width="202" x="207" y="598.9019"/><text fill="#000000" font-family="Verdana" font-size="12" lengthAdjust="spacing" textLength="182" x="217" y="620.0405">Puppet meets other puppets</text><rect fill="#FFFFFF" height="33.9688" rx="12.5" ry="12.5" style="stroke:#000000;stroke-width:1.0;" width="235" x="190.5" y="667.8706"/><text fill="#000000" font-family="Verdana" font-size="12" lengthAdjust="spacing" textLength="215" x="200.5" y="689.0093">Communication attempts increase</text><rect fill="#FFFFFF" height="33.9688" rx="12.5" ry="12.5" style="stroke:#000000;stroke-width:1.0;" width="186" x="215" y="721.8394"/><text fill="#000000" font-family="Verdana" font-size="12" lengthAdjust="spacing" textLength="166" x="225" y="742.978">May begin verbal attempts</text><polygon fill="#FFFFFF" points="249.5,496.5308,366.5,496.5308,378.5,508.5308,366.5,520.5308,249.5,520.5308,237.5,508.5308,249.5,496.5308" style="stroke:#000000;stroke-width:1.0;"/><text fill="#000000" font-family="Verdana" font-size="11" lengthAdjust="spacing" textLength="20" x="312" y="530.7412">yes</text><text fill="#000000" font-family="Verdana" font-size="11" lengthAdjust="spacing" textLength="117" x="249.5" y="512.3389">Ready for next step?</text><polygon fill="#FFFFFF" points="308,775.8081,320,787.8081,308,799.8081,296,787.8081,308,775.8081" style="stroke:#000000;stroke-width:1.0;"/><polygon fill="#FFFFFF" points="229.5,278.9141,386.5,278.9141,398.5,290.9141,386.5,302.9141,229.5,302.9141,217.5,290.9141,229.5,278.9141" style="stroke:#000000;stroke-width:1.0;"/><text fill="#000000" font-family="Verdana" font-size="11" lengthAdjust="spacing" textLength="20" x="312" y="313.1245">yes</text><text fill="#000000" font-family="Verdana" font-size="11" lengthAdjust="spacing" textLength="157" x="229.5" y="294.7222">Child engages with puppet?</text><rect fill="#FFD700" height="33.9688" rx="12.5" ry="12.5" style="stroke:#000000;stroke-width:1.0;" width="125" x="245.5" y="841.8081"/><text fill="#000000" font-family="Verdana" font-size="12" lengthAdjust="spacing" textLength="105" x="255.5" y="862.9468">Validation Phase</text><rect fill="#FFFFFF" height="33.9688" rx="12.5" ry="12.5" style="stroke:#000000;stroke-width:1.0;" width="114" x="251" y="895.7769"/><text fill="#000000" font-family="Verdana" font-size="12" lengthAdjust="spacing" textLength="94" x="261" y="916.9155">Track progress</text><rect fill="#FFFFFF" height="47.9375" rx="12.5" ry="12.5" style="stroke:#000000;stroke-width:1.0;" width="212" x="202" y="949.7456"/><text fill="#000000" font-family="Verdana" font-size="12" lengthAdjust="spacing" textLength="192" x="212" y="970.8843">Measure both internal feelings</text><text fill="#000000" font-family="Verdana" font-size="12" lengthAdjust="spacing" textLength="144" x="212" y="984.853">and external behaviors</text><polygon fill="#FFFFFF" points="214.5,1017.6831,401.5,1017.6831,413.5,1029.6831,401.5,1041.6831,214.5,1041.6831,202.5,1029.6831,214.5,1017.6831" style="stroke:#000000;stroke-width:1.0;"/><text fill="#000000" font-family="Verdana" font-size="11" lengthAdjust="spacing" textLength="187" x="214.5" y="1033.4912">Verbal communication emerges?</text><text fill="#000000" font-family="Verdana" font-size="11" lengthAdjust="spacing" textLength="20" x="182.5" y="1027.0889">yes</text><text fill="#000000" font-family="Verdana" font-size="11" lengthAdjust="spacing" textLength="14" x="413.5" y="1027.0889">no</text><rect fill="#FFFFFF" height="33.9688" rx="12.5" ry="12.5" style="stroke:#000000;stroke-width:1.0;" width="184" x="100.5" y="1051.6831"/><text fill="#000000" font-family="Verdana" font-size="12" lengthAdjust="spacing" textLength="164" x="110.5" y="1072.8218">Success! But not required</text><rect fill="#FFFFFF" height="47.9375" rx="12.5" ry="12.5" style="stroke:#000000;stroke-width:1.0;" width="186" x="330.5" y="1051.6831"/><text fill="#000000" font-family="Verdana" font-size="12" lengthAdjust="spacing" textLength="166" x="340.5" y="1072.8218">Alternative communication</text><text fill="#000000" font-family="Verdana" font-size="12" lengthAdjust="spacing" textLength="85" x="340.5" y="1086.7905">fully validated</text><polygon fill="#FFFFFF" points="308,1105.6206,320,1117.6206,308,1129.6206,296,1117.6206,308,1105.6206" style="stroke:#000000;stroke-width:1.0;"/><ellipse cx="308" cy="1160.6206" fill="none" rx="11" ry="11" style="stroke:#000000;stroke-width:1.0;"/><ellipse cx="308" cy="1160.6206" fill="#FFFFFF" rx="6" ry="6" style="stroke:#000000;stroke-width:1.0;"/><line style="stroke:#000000;stroke-width:1.0;" x1="308" x2="308" y1="71.6094" y2="91.6094"/><polygon fill="#000000" points="304,81.6094,308,91.6094,312,81.6094,308,85.6094" style="stroke:#000000;stroke-width:1.0;"/><line style="stroke:#000000;stroke-width:1.0;" x1="308" x2="308" y1="125.5781" y2="145.5781"/><polygon fill="#000000" points="304,135.5781,308,145.5781,312,135.5781,308,139.5781" style="stroke:#000000;stroke-width:1.0;"/><line style="stroke:#000000;stroke-width:1.0;" x1="308" x2="308" y1="193.5156" y2="214.2305"/><polygon fill="#000000" points="304,204.2305,308,214.2305,312,204.2305,308,208.2305" style="stroke:#000000;stroke-width:1.0;"/><line style="stroke:#000000;stroke-width:1.0;" x1="308" x2="308" y1="368.5933" y2="388.5933"/><polygon fill="#000000" points="304,378.5933,308,388.5933,312,378.5933,308,382.5933" style="stroke:#000000;stroke-width:1.0;"/><line style="stroke:#000000;stroke-width:1.0;" x1="308" x2="308" y1="422.562" y2="442.562"/><polygon fill="#000000" points="304,432.562,308,442.562,312,432.562,308,436.562" style="stroke:#000000;stroke-width:1.0;"/><line style="stroke:#000000;stroke-width:1.0;" x1="308" x2="308" y1="578.9019" y2="598.9019"/><polygon fill="#000000" points="304,588.9019,308,598.9019,312,588.9019,308,592.9019" style="stroke:#000000;stroke-width:1.0;"/><line style="stroke:#000000;stroke-width:1.0;" x1="308" x2="308" y1="632.8706" y2="667.8706"/><polygon fill="#000000" points="304,657.8706,308,667.8706,312,657.8706,308,661.8706" style="stroke:#000000;stroke-width:1.0;"/><line style="stroke:#000000;stroke-width:1.0;" x1="308" x2="308" y1="701.8394" y2="721.8394"/><polygon fill="#000000" points="304,711.8394,308,721.8394,312,711.8394,308,715.8394" style="stroke:#000000;stroke-width:1.0;"/><line style="stroke:#000000;stroke-width:1.0;" x1="308" x2="308" y1="520.5308" y2="544.9331"/><polygon fill="#000000" points="304,534.9331,308,544.9331,312,534.9331,308,538.9331" style="stroke:#000000;stroke-width:1.0;"/><line style="stroke:#000000;stroke-width:1.0;" x1="378.5" x2="435.5" y1="508.5308" y2="508.5308"/><polygon fill="#000000" points="431.5,640.3706,435.5,650.3706,439.5,640.3706,435.5,644.3706" style="stroke:#000000;stroke-width:1.0;"/><line style="stroke:#000000;stroke-width:1.0;" x1="435.5" x2="435.5" y1="508.5308" y2="787.8081"/><line style="stroke:#000000;stroke-width:1.0;" x1="435.5" x2="320" y1="787.8081" y2="787.8081"/><polygon fill="#000000" points="330,783.8081,320,787.8081,330,791.8081,326,787.8081" style="stroke:#000000;stroke-width:1.0;"/><line style="stroke:#000000;stroke-width:1.0;" x1="308" x2="308" y1="755.8081" y2="775.8081"/><polygon fill="#000000" points="304,765.8081,308,775.8081,312,765.8081,308,769.8081" style="stroke:#000000;stroke-width:1.0;"/><line style="stroke:#000000;stroke-width:1.0;" x1="308" x2="308" y1="476.5308" y2="496.5308"/><polygon fill="#000000" points="304,486.5308,308,496.5308,312,486.5308,308,490.5308" style="stroke:#000000;stroke-width:1.0;"/><line style="stroke:#000000;stroke-width:1.0;" x1="308" x2="308" y1="302.9141" y2="334.6245"/><polygon fill="#000000" points="304,324.6245,308,334.6245,312,324.6245,308,328.6245" style="stroke:#000000;stroke-width:1.0;"/><line style="stroke:#000000;stroke-width:1.0;" x1="308" x2="308" y1="799.8081" y2="809.8081"/><line style="stroke:#000000;stroke-width:1.0;" x1="308" x2="459.5" y1="809.8081" y2="809.8081"/><polygon fill="#000000" points="455.5,553.5151,459.5,543.5151,463.5,553.5151,459.5,549.5151" style="stroke:#000000;stroke-width:1.0;"/><line style="stroke:#000000;stroke-width:1.0;" x1="459.5" x2="459.5" y1="290.9141" y2="809.8081"/><line style="stroke:#000000;stroke-width:1.0;" x1="459.5" x2="398.5" y1="290.9141" y2="290.9141"/><polygon fill="#000000" points="408.5,286.9141,398.5,290.9141,408.5,294.9141,404.5,290.9141" style="stroke:#000000;stroke-width:1.0;"/><line style="stroke:#000000;stroke-width:1.0;" x1="217.5" x2="168.5" y1="290.9141" y2="290.9141"/><polygon fill="#000000" points="164.5,539.5151,168.5,549.5151,172.5,539.5151,168.5,543.5151" style="stroke:#000000;stroke-width:1.0;"/><line style="stroke:#000000;stroke-width:1.0;" x1="168.5" x2="168.5" y1="290.9141" y2="821.8081"/><line style="stroke:#000000;stroke-width:1.0;" x1="168.5" x2="308" y1="821.8081" y2="821.8081"/><line style="stroke:#000000;stroke-width:1.0;" x1="308" x2="308" y1="821.8081" y2="841.8081"/><polygon fill="#000000" points="304,831.8081,308,841.8081,312,831.8081,308,835.8081" style="stroke:#000000;stroke-width:1.0;"/><line style="stroke:#000000;stroke-width:1.0;" x1="308" x2="308" y1="248.1992" y2="278.9141"/><polygon fill="#000000" points="304,268.9141,308,278.9141,312,268.9141,308,272.9141" style="stroke:#000000;stroke-width:1.0;"/><line style="stroke:#000000;stroke-width:1.0;" x1="308" x2="308" y1="875.7769" y2="895.7769"/><polygon fill="#000000" points="304,885.7769,308,895.7769,312,885.7769,308,889.7769" style="stroke:#000000;stroke-width:1.0;"/><line style="stroke:#000000;stroke-width:1.0;" x1="308" x2="308" y1="929.7456" y2="949.7456"/><polygon fill="#000000" points="304,939.7456,308,949.7456,312,939.7456,308,943.7456" style="stroke:#000000;stroke-width:1.0;"/><line style="stroke:#000000;stroke-width:1.0;" x1="202.5" x2="192.5" y1="1029.6831" y2="1029.6831"/><line style="stroke:#000000;stroke-width:1.0;" x1="192.5" x2="192.5" y1="1029.6831" y2="1051.6831"/><polygon fill="#000000" points="188.5,1041.6831,192.5,1051.6831,196.5,1041.6831,192.5,1045.6831" style="stroke:#000000;stroke-width:1.0;"/><line style="stroke:#000000;stroke-width:1.0;" x1="413.5" x2="423.5" y1="1029.6831" y2="1029.6831"/><line style="stroke:#000000;stroke-width:1.0;" x1="423.5" x2="423.5" y1="1029.6831" y2="1051.6831"/><polygon fill="#000000" points="419.5,1041.6831,423.5,1051.6831,427.5,1041.6831,423.5,1045.6831" style="stroke:#000000;stroke-width:1.0;"/><line style="stroke:#000000;stroke-width:1.0;" x1="192.5" x2="192.5" y1="1085.6519" y2="1117.6206"/><line style="stroke:#000000;stroke-width:1.0;" x1="192.5" x2="296" y1="1117.6206" y2="1117.6206"/><polygon fill="#000000" points="286,1113.6206,296,1117.6206,286,1121.6206,290,1117.6206" style="stroke:#000000;stroke-width:1.0;"/><line style="stroke:#000000;stroke-width:1.0;" x1="423.5" x2="423.5" y1="1099.6206" y2="1117.6206"/><line style="stroke:#000000;stroke-width:1.0;" x1="423.5" x2="320" y1="1117.6206" y2="1117.6206"/><polygon fill="#000000" points="330,1113.6206,320,1117.6206,330,1121.6206,326,1117.6206" style="stroke:#000000;stroke-width:1.0;"/><line style="stroke:#000000;stroke-width:1.0;" x1="308" x2="308" y1="997.6831" y2="1017.6831"/><polygon fill="#000000" points="304,1007.6831,308,1017.6831,312,1007.6831,308,1011.6831" style="stroke:#000000;stroke-width:1.0;"/><line style="stroke:#000000;stroke-width:1.0;" x1="308" x2="308" y1="1129.6206" y2="1149.6206"/><polygon fill="#000000" points="304,1139.6206,308,1149.6206,312,1139.6206,308,1143.6206" style="stroke:#000000;stroke-width:1.0;"/><!--SRC=[NLCzSzim3DtvAv1uSOPUjmxoq8lTDDTUqyirlKnUA0gIM5CW2v9EzEyBwiDjUk900U33Um_aLUfnG0XEMrBnP2berWFKsfmwzfcQWtUUOVFvhdnA9PiSmfS6INOZVC8pEXy6-OMlFZFXg5HCcfDIrQ6thW56W_QC4K8E0HDeMHt2XvqYdn3OTdsgO8-T9RBKWM_1hl2_LiW5gy5eErgXZfGyEEzFxrj41ywU48gSdTfyAwXxbx6wKBqbqtik7Hvx7N5fxx1D2k0TFCxiQZH-4BBN1UXwoZpf5Y46RH1QiG9V0sECrjEK_UvBr4pC6JZ7NhOAgO62hzIB44VOploHEj4UuSMcVX7nyGPiXEs8yKRmghiP7OeY0OeYICRGhTMxKhDGjPIGjKd291QNFJVOp0KwIKgYTN4Ln2MPCNTOah9i2ziVg9jnqaFucY0c3C94HDE52y1iupqZKhLdsyZO3j8iSPwwhaQMqfNKW9WYU07YXN9S2Wv-639PewUZXU4GfDIIOVmByw37XVKPkTRkKbZougfjYxUJgKfjxhrhgcVjRAF_9LJz55zE4DXtnKm9F4YBp0YrC9kD8y5UJJwIbdc93tEunbwVhMSvg8fNppCJyqR0x6ZytxJgAHiZFQzWdrEv0ZAPtzbocGowA3U1_5HtwwPkIPx6M-GZjTcv4SwphEdWf5lUbGz_0000]--></g></svg>