<svg xmlns="http://www.w3.org/2000/svg" xmlns:xlink="http://www.w3.org/1999/xlink" contentStyleType="text/css" height="1256px" preserveAspectRatio="none" style="width:1658px;height:1256px;background:#FEFEFE;" version="1.1" viewBox="0 0 1658 1256" width="1658px" zoomAndPan="magnify"><defs/><g><rect fill="#FEFEFE" height="1256" style="stroke:none;stroke-width:1.0;" width="1658" x="0" y="0"/><text fill="#000000" font-family="Verdana" font-size="22" font-weight="bold" lengthAdjust="spacing" textLength="629" x="510" y="35.4209">Identity Anchoring Protocol - System Architecture</text><!--cluster Individual's World--><g id="cluster_Individual's World"><path d="M375.5,57.6094 L514.5,57.6094 A3.75,3.75 0 0 1 517,60.1094 L524,79.9063 L817.5,79.9063 A2.5,2.5 0 0 1 820,82.4063 L820,323.6994 A2.5,2.5 0 0 1 817.5,326.1994 L375.5,326.1994 A2.5,2.5 0 0 1 373,323.6994 L373,60.1094 A2.5,2.5 0 0 1 375.5,57.6094 " fill="#FFFFFF" style="stroke:#000000;stroke-width:1.0;"/><line style="stroke:#000000;stroke-width:1.0;" x1="373" x2="524" y1="79.9063" y2="79.9063"/><text fill="#000000" font-family="Verdana" font-size="14" font-weight="bold" lengthAdjust="spacing" textLength="138" x="377" y="72.6045">Individual's World</text></g><!--cluster Support Network--><g id="cluster_Support Network"><path d="M1291.5,945.3894 L1427.5,945.3894 A3.75,3.75 0 0 1 1430,947.8894 L1437,967.6863 L1511.5,967.6863 A2.5,2.5 0 0 1 1514,970.1863 L1514,1246.9794 A2.5,2.5 0 0 1 1511.5,1249.4794 L1291.5,1249.4794 A2.5,2.5 0 0 1 1289,1246.9794 L1289,947.8894 A2.5,2.5 0 0 1 1291.5,945.3894 " fill="#FFFFFF" style="stroke:#000000;stroke-width:1.0;"/><line style="stroke:#000000;stroke-width:1.0;" x1="1289" x2="1437" y1="967.6863" y2="967.6863"/><text fill="#000000" font-family="Verdana" font-size="14" font-weight="bold" lengthAdjust="spacing" textLength="135" x="1293" y="960.3845">Support Network</text></g><!--cluster Identity System--><g id="cluster_Identity System"><path d="M13.5,376.1994 L136.5,376.1994 A3.75,3.75 0 0 1 139,378.6994 L146,398.4962 L1254.5,398.4962 A2.5,2.5 0 0 1 1257,400.9962 L1257,1098.6794 A2.5,2.5 0 0 1 1254.5,1101.1794 L13.5,1101.1794 A2.5,2.5 0 0 1 11,1098.6794 L11,378.6994 A2.5,2.5 0 0 1 13.5,376.1994 " fill="#FFFFFF" style="stroke:#000000;stroke-width:1.0;"/><line style="stroke:#000000;stroke-width:1.0;" x1="11" x2="146" y1="398.4962" y2="398.4962"/><text fill="#000000" font-family="Verdana" font-size="14" font-weight="bold" lengthAdjust="spacing" textLength="122" x="15" y="391.1945">Identity System</text></g><!--cluster registry--><g id="cluster_registry"><path d="M618,777.7894 C618,767.7894 828,767.7894 828,767.7894 C828,767.7894 1038,767.7894 1038,777.7894 L1038,1059.1794 C1038,1069.1794 828,1069.1794 828,1069.1794 C828,1069.1794 618,1069.1794 618,1059.1794 L618,777.7894 " fill="#FFFFFF" style="stroke:#000000;stroke-width:1.0;"/><path d="M618,777.7894 C618,787.7894 828,787.7894 828,787.7894 C828,787.7894 1038,787.7894 1038,777.7894 " fill="none" style="stroke:#000000;stroke-width:1.0;"/><text fill="#000000" font-family="Verdana" font-size="14" font-weight="bold" lengthAdjust="spacing" textLength="129" x="763.5" y="802.7845">Identity Registry</text></g><!--cluster bridge--><g id="cluster_bridge"><rect fill="#90EE90" height="274.59" rx="2.5" ry="2.5" style="stroke:#000000;stroke-width:1.0;" width="453" x="43" y="427.1994"/><rect fill="#90EE90" height="10" style="stroke:#000000;stroke-width:1.0;" width="15" x="476" y="432.1994"/><rect fill="#90EE90" height="2" style="stroke:#000000;stroke-width:1.0;" width="4" x="474" y="434.1994"/><rect fill="#90EE90" height="2" style="stroke:#000000;stroke-width:1.0;" width="4" x="474" y="438.1994"/><text fill="#000000" font-family="Verdana" font-size="14" font-weight="bold" lengthAdjust="spacing" textLength="144" x="197.5" y="453.1945">Translation Bridge</text></g><!--cluster validators--><g id="cluster_validators"><rect fill="#F08080" height="113.29" rx="2.5" ry="2.5" style="stroke:#000000;stroke-width:1.0;" width="689" x="536" y="588.4994"/><rect fill="#F08080" height="10" style="stroke:#000000;stroke-width:1.0;" width="15" x="1205" y="593.4994"/><rect fill="#F08080" height="2" style="stroke:#000000;stroke-width:1.0;" width="4" x="1203" y="595.4994"/><rect fill="#F08080" height="2" style="stroke:#000000;stroke-width:1.0;" width="4" x="1203" y="599.4994"/><text fill="#000000" font-family="Verdana" font-size="14" font-weight="bold" lengthAdjust="spacing" textLength="149" x="806" y="614.4945">Validation Network</text></g><!--entity person--><g id="elem_person"><ellipse cx="488" cy="101.6094" fill="#FFFFFF" rx="8" ry="8" style="stroke:#000000;stroke-width:1.0;"/><path d="M488,109.6094 L488,136.6094 M475,117.6094 L501,117.6094 M488,136.6094 L475,151.6094 M488,136.6094 L501,151.6094 " fill="none" style="stroke:#000000;stroke-width:1.0;"/><text fill="#000000" font-family="Verdana" font-size="14" lengthAdjust="spacing" textLength="127" x="424.5" y="166.6045">Non-verbal Person</text></g><!--entity puppet--><g id="elem_puppet"><rect fill="#ADD8E6" height="46.2969" rx="2.5" ry="2.5" style="stroke:#000000;stroke-width:1.0;" width="198" x="389" y="263.8994"/><rect fill="#ADD8E6" height="10" style="stroke:#000000;stroke-width:1.0;" width="15" x="567" y="268.8994"/><rect fill="#ADD8E6" height="2" style="stroke:#000000;stroke-width:1.0;" width="4" x="565" y="270.8994"/><rect fill="#ADD8E6" height="2" style="stroke:#000000;stroke-width:1.0;" width="4" x="565" y="274.8994"/><text fill="#000000" font-family="Verdana" font-size="14" lengthAdjust="spacing" textLength="158" x="404" y="296.8945">Puppet/Identity Anchor</text></g><g id="elem_GMN5"><path d="M622,265.7494 L622,283.0494 L587.32,287.0494 L622,291.0494 L622,308.3431 A0,0 0 0 0 622,308.3431 L804,308.3431 A0,0 0 0 0 804,308.3431 L804,275.7494 L794,265.7494 L622,265.7494 A0,0 0 0 0 622,265.7494 " fill="#FFFFFF" style="stroke:#000000;stroke-width:1.0;"/><path d="M794,265.7494 L794,275.7494 L804,275.7494 L794,265.7494 " fill="#FFFFFF" style="stroke:#000000;stroke-width:1.0;"/><text fill="#000000" font-family="Verdana" font-size="14" lengthAdjust="spacing" textLength="161" x="628" y="283.7445">Physical representation</text><text fill="#000000" font-family="Verdana" font-size="14" lengthAdjust="spacing" textLength="122" x="628" y="300.0414">of internal identity</text></g><!--entity Caregiver--><g id="elem_Caregiver"><ellipse cx="1346" cy="997.3894" fill="#FFFFFF" rx="8" ry="8" style="stroke:#000000;stroke-width:1.0;"/><path d="M1346,1005.3894 L1346,1032.3894 M1333,1013.3894 L1359,1013.3894 M1346,1032.3894 L1333,1047.3894 M1346,1032.3894 L1359,1047.3894 " fill="none" style="stroke:#000000;stroke-width:1.0;"/><text fill="#000000" font-family="Verdana" font-size="14" lengthAdjust="spacing" textLength="65" x="1313.5" y="1062.3845">Caregiver</text></g><!--entity Teacher--><g id="elem_Teacher"><ellipse cx="1442" cy="997.3894" fill="#FFFFFF" rx="8" ry="8" style="stroke:#000000;stroke-width:1.0;"/><path d="M1442,1005.3894 L1442,1032.3894 M1429,1013.3894 L1455,1013.3894 M1442,1032.3894 L1429,1047.3894 M1442,1032.3894 L1455,1047.3894 " fill="none" style="stroke:#000000;stroke-width:1.0;"/><text fill="#000000" font-family="Verdana" font-size="14" lengthAdjust="spacing" textLength="57" x="1413.5" y="1062.3845">Teacher</text></g><!--entity Therapist--><g id="elem_Therapist"><ellipse cx="1346" cy="1157.1794" fill="#FFFFFF" rx="8" ry="8" style="stroke:#000000;stroke-width:1.0;"/><path d="M1346,1165.1794 L1346,1192.1794 M1333,1173.1794 L1359,1173.1794 M1346,1192.1794 L1333,1207.1794 M1346,1192.1794 L1359,1207.1794 " fill="none" style="stroke:#000000;stroke-width:1.0;"/><text fill="#000000" font-family="Verdana" font-size="14" lengthAdjust="spacing" textLength="65" x="1313.5" y="1222.1745">Therapist</text></g><!--entity Unique Identity Records--><g id="elem_Unique Identity Records"><rect fill="#FFFFFF" height="36.2969" rx="35" ry="35" style="stroke:#000000;stroke-width:1.0;" width="185" x="641.5" y="825.7894"/><text fill="#000000" font-family="Verdana" font-size="14" lengthAdjust="spacing" textLength="165" x="651.5" y="848.7845">Unique Identity Records</text></g><!--entity Evolution History--><g id="elem_Evolution History"><rect fill="#FFFFFF" height="36.2969" rx="35" ry="35" style="stroke:#000000;stroke-width:1.0;" width="134" x="861" y="825.7894"/><text fill="#000000" font-family="Verdana" font-size="14" lengthAdjust="spacing" textLength="114" x="871" y="848.7845">Evolution History</text></g><!--entity Expression Patterns--><g id="elem_Expression Patterns"><rect fill="#FFFFFF" height="36.2969" rx="35" ry="35" style="stroke:#000000;stroke-width:1.0;" width="158" x="655" y="1008.8894"/><text fill="#000000" font-family="Verdana" font-size="14" lengthAdjust="spacing" textLength="138" x="665" y="1031.8845">Expression Patterns</text></g><!--entity Non-verbal to Verbal--><g id="elem_Non-verbal to Verbal"><rect fill="#FFFFFF" height="46.2969" rx="2.5" ry="2.5" style="stroke:#000000;stroke-width:1.0;" width="179" x="66.5" y="470.1994"/><rect fill="#FFFFFF" height="10" style="stroke:#000000;stroke-width:1.0;" width="15" x="225.5" y="475.1994"/><rect fill="#FFFFFF" height="2" style="stroke:#000000;stroke-width:1.0;" width="4" x="223.5" y="477.1994"/><rect fill="#FFFFFF" height="2" style="stroke:#000000;stroke-width:1.0;" width="4" x="223.5" y="481.1994"/><text fill="#000000" font-family="Verdana" font-size="14" lengthAdjust="spacing" textLength="139" x="81.5" y="503.1945">Non-verbal to Verbal</text></g><!--entity Symbolic to Written--><g id="elem_Symbolic to Written"><rect fill="#FFFFFF" height="46.2969" rx="2.5" ry="2.5" style="stroke:#000000;stroke-width:1.0;" width="172" x="281" y="470.1994"/><rect fill="#FFFFFF" height="10" style="stroke:#000000;stroke-width:1.0;" width="15" x="433" y="475.1994"/><rect fill="#FFFFFF" height="2" style="stroke:#000000;stroke-width:1.0;" width="4" x="431" y="477.1994"/><rect fill="#FFFFFF" height="2" style="stroke:#000000;stroke-width:1.0;" width="4" x="431" y="481.1994"/><text fill="#000000" font-family="Verdana" font-size="14" lengthAdjust="spacing" textLength="132" x="296" y="503.1945">Symbolic to Written</text></g><!--entity Movement to Meaning--><g id="elem_Movement to Meaning"><rect fill="#FFFFFF" height="46.2969" rx="2.5" ry="2.5" style="stroke:#000000;stroke-width:1.0;" width="194" x="67" y="631.4994"/><rect fill="#FFFFFF" height="10" style="stroke:#000000;stroke-width:1.0;" width="15" x="241" y="636.4994"/><rect fill="#FFFFFF" height="2" style="stroke:#000000;stroke-width:1.0;" width="4" x="239" y="638.4994"/><rect fill="#FFFFFF" height="2" style="stroke:#000000;stroke-width:1.0;" width="4" x="239" y="642.4994"/><text fill="#000000" font-family="Verdana" font-size="14" lengthAdjust="spacing" textLength="154" x="82" y="664.4945">Movement to Meaning</text></g><!--entity 21 Independent Validators--><g id="elem_21 Independent Validators"><rect fill="#FFFFFF" height="46.2969" rx="2.5" ry="2.5" style="stroke:#000000;stroke-width:1.0;" width="222" x="579" y="631.4994"/><rect fill="#FFFFFF" height="10" style="stroke:#000000;stroke-width:1.0;" width="15" x="781" y="636.4994"/><rect fill="#FFFFFF" height="2" style="stroke:#000000;stroke-width:1.0;" width="4" x="779" y="638.4994"/><rect fill="#FFFFFF" height="2" style="stroke:#000000;stroke-width:1.0;" width="4" x="779" y="642.4994"/><text fill="#000000" font-family="Verdana" font-size="14" lengthAdjust="spacing" textLength="182" x="594" y="664.4945">21 Independent Validators</text></g><!--entity Consensus Protocol--><g id="elem_Consensus Protocol"><rect fill="#FFFFFF" height="46.2969" rx="2.5" ry="2.5" style="stroke:#000000;stroke-width:1.0;" width="180" x="836" y="631.4994"/><rect fill="#FFFFFF" height="10" style="stroke:#000000;stroke-width:1.0;" width="15" x="996" y="636.4994"/><rect fill="#FFFFFF" height="2" style="stroke:#000000;stroke-width:1.0;" width="4" x="994" y="638.4994"/><rect fill="#FFFFFF" height="2" style="stroke:#000000;stroke-width:1.0;" width="4" x="994" y="642.4994"/><text fill="#000000" font-family="Verdana" font-size="14" lengthAdjust="spacing" textLength="140" x="851" y="664.4945">Consensus Protocol</text></g><!--entity Security Checks--><g id="elem_Security Checks"><rect fill="#FFFFFF" height="46.2969" rx="2.5" ry="2.5" style="stroke:#000000;stroke-width:1.0;" width="151" x="1050.5" y="631.4994"/><rect fill="#FFFFFF" height="10" style="stroke:#000000;stroke-width:1.0;" width="15" x="1181.5" y="636.4994"/><rect fill="#FFFFFF" height="2" style="stroke:#000000;stroke-width:1.0;" width="4" x="1179.5" y="638.4994"/><rect fill="#FFFFFF" height="2" style="stroke:#000000;stroke-width:1.0;" width="4" x="1179.5" y="642.4994"/><text fill="#000000" font-family="Verdana" font-size="14" lengthAdjust="spacing" textLength="111" x="1065.5" y="664.4945">Security Checks</text></g><g id="elem_GMN30"><path d="M1273,814.4994 L1273,873.39 A0,0 0 0 0 1273,873.39 L1651,873.39 A0,0 0 0 0 1651,873.39 L1651,824.4994 L1641,814.4994 L1414.33,814.4994 L1166.53,678.2394 L1406.33,814.4994 L1273,814.4994 A0,0 0 0 0 1273,814.4994 " fill="#FFFFFF" style="stroke:#000000;stroke-width:1.0;"/><path d="M1641,814.4994 L1641,824.4994 L1651,824.4994 L1641,814.4994 " fill="#FFFFFF" style="stroke:#000000;stroke-width:1.0;"/><text fill="#000000" font-family="Verdana" font-size="14" lengthAdjust="spacing" textLength="357" x="1279" y="832.4945">The system ensures that each person's unique way</text><text fill="#000000" font-family="Verdana" font-size="14" lengthAdjust="spacing" textLength="330" x="1279" y="848.7914">of communicating is recognized, protected, and</text><text fill="#000000" font-family="Verdana" font-size="14" lengthAdjust="spacing" textLength="280" x="1279" y="865.0882">understood by those who support them.</text></g><!--link person to puppet--><g id="link_person_puppet"><path d="M488,170.2694 C488,199.6194 488,233.2394 488,257.6894 " fill="none" id="person-to-puppet" style="stroke:#000000;stroke-width:1.0;"/><polygon fill="#000000" points="488,263.6894,492,254.6894,488,258.6894,484,254.6894,488,263.6894" style="stroke:#000000;stroke-width:1.0;"/><text fill="#000000" font-family="Verdana" font-size="14" lengthAdjust="spacing" textLength="70" x="519.5" y="213.8945">Creates &amp;</text><text fill="#000000" font-family="Verdana" font-size="14" lengthAdjust="spacing" textLength="131" x="489" y="230.1914">Expresses through</text></g><!--link puppet to bridge--><g id="link_puppet_bridge"><path d="M488,310.6894 C488,336.8694 488,381.2844 488,419.6419 C488,422.0392 488,418.4129 488,420.757 " fill="none" id="puppet-to-bridge" style="stroke:#000000;stroke-width:1.0;"/><polygon fill="#000000" points="488,426.757,492,417.757,488,421.757,484,417.757,488,426.757" style="stroke:#000000;stroke-width:1.0;"/><text fill="#000000" font-family="Verdana" font-size="14" lengthAdjust="spacing" textLength="132" x="489" y="356.1945">Sends expressions</text></g><!--link bridge to validators--><g id="link_bridge_validators"><path d="M496.0643,517.2844 C496.1414,517.5037 496.2189,517.7242 496.2968,517.9459 C496.6085,518.8326 496.9269,519.7381 497.2514,520.6612 C502.4441,535.4319 509.2281,554.7294 516.0113,574.0244 C522.7944,593.3194 529.5766,612.6119 534.7655,627.3725 C535.0898,628.295 535.4079,629.1999 535.7193,630.0859 C535.7972,630.3074 533.8848,624.8673 533.9618,625.0864 " fill="none" id="bridge-to-validators" style="stroke:#000000;stroke-width:1.0;"/><polygon fill="#000000" points="535.9517,630.7469,536.7405,620.9297,534.2935,626.0299,529.1933,623.5828,535.9517,630.7469" style="stroke:#000000;stroke-width:1.0;"/><text fill="#000000" font-family="Verdana" font-size="14" lengthAdjust="spacing" textLength="146" x="513.65" y="560.4945">Validates authenticity</text></g><!--link validators to registry--><g id="link_validators_registry"><path d="M551.1891,701.9907 C551.2348,702.0904 551.2808,702.1899 551.3271,702.2893 C551.5122,702.6868 551.7017,703.082 551.8958,703.4746 C552.284,704.2599 552.6903,705.0349 553.1156,705.7977 C553.9663,707.3233 554.8929,708.8 555.902,710.2124 C557.9203,713.0372 560.2688,715.6044 563,717.7894 C640.95,780.1794 935.97,685.9194 1011,751.7894 C1014.8263,755.1494 1017.9986,759.0625 1020.62,763.3418 C1021.2754,764.4116 1021.8963,765.5043 1022.4844,766.6169 C1022.6314,766.8951 1020.053,761.8282 1020.1959,762.1088 " fill="none" id="validators-to-registry" style="stroke:#000000;stroke-width:1.0;"/><polygon fill="#000000" points="1022.9193,767.4551,1022.3984,757.6201,1020.6498,762.9999,1015.27,761.2513,1022.9193,767.4551" style="stroke:#000000;stroke-width:1.0;"/><text fill="#000000" font-family="Verdana" font-size="14" lengthAdjust="spacing" textLength="135" x="996.21" y="739.7845">Stores if 67% agree</text></g><!--link registry to Support Network--><g id="link_registry_Support Network"><path d="M1038.6825,845.9544 C1039.7036,846.0749 1040.8092,846.2059 1041.9964,846.3469 C1044.3707,846.629 1047.0712,846.9515 1050.0738,847.3127 C1062.0843,848.7577 1078.9296,850.8216 1099.0761,853.39 C1139.3691,858.5269 1192.8669,865.6819 1247.3013,873.9394 C1356.17,890.4544 1468.785,911.3794 1487,929.3894 C1490.83,933.1756 1494.0052,937.4933 1496.6286,942.1543 C1496.9566,942.7369 1497.2759,943.3249 1497.5868,943.9178 C1497.7422,944.2143 1497.8956,944.5121 1498.0468,944.811 C1498.1225,944.9605 1495.5269,939.7374 1495.6015,939.8875 " fill="none" id="registry-to-Support Network" style="stroke:#000000;stroke-width:1.0;"/><polygon fill="#000000" points="1498.2722,945.2603,1497.848,935.4206,1496.0466,940.783,1490.6842,938.9816,1498.2722,945.2603" style="stroke:#000000;stroke-width:1.0;"/><text fill="#000000" font-family="Verdana" font-size="14" lengthAdjust="spacing" textLength="106" x="1472.23" y="917.3845">Shares insights</text></g><!--SRC=[RLHHRzD037xFhp2TW1SA6a8WxG5fgpQOnAPg7Ti3syFbuYMdfkVWSpeojF-ExvA6RA2gqkNysVviVxuNKk46eQcDyrbOEzyODXl8ZLsNJAql5bGJmzx9SVnD40NUcRQM4_AoSWy8-n-oJ9pK2AS5UZrrSEXjHUny2Kic8Kirp67L1S4D7BAjdA2LbZ7B6ardIeJPgI_SrXMjgLy7k2QkYndypW2C5MKnEoS_toBdfeObSY0_0nEWIKT5MTeqv3Kxp9Pjqw2yUyQbXoSJx7rpPIL7TOlgwKaGE5u0tUqG1x2ikk2iPcDi68F6CkB8ttW5EI_8Ncrko94zJWfPQGXYWNEKU-Brj8g5OIoTbZ7UNAAnrVHRFqpZWZm9ETRIjx0FMHWnkGbJyuL63y9TAfQ7ZmG621e-1VlktSzsCgiBjCH5c3r57M-fRcF5yDN5o-wv_LTiIuY0fP7OZnJXKVzFnt79neSwDG-Es1Kb9dPvEWwZ-CA8Vk3vOp9f8RXAfzlUjEesETNEHiCrEqth1yiPRLNCcayjPsYyIk_sltIkJEsAdiqu8AMpxQ-9mq1feNNMEqhlzq7bYGtws3Iu6i53zWLvLKXemoZt7M6qBSScBogqwz1JYfDDkeNv_FDVnIqOZM20LpT-QAv-IAMhM5RPW8eEG-SEOALq0k0uY90DfeYQ57Im8wpnJAjRhtEtKRKJJ7GP1QEXzLBHxWu-Vde9fjJvPACvOlzLkJfL9Zdv41iOiYojLauYjD72LTeG-YSWzefJTKOWRi2moBhvRQ_EUzEfY-wQZcwZTrP7fg-9YxAsL7fzTuetq6YtzI69H-CBTT1NImC9KG5vf-59r-E-8WW3s_ZalSsqRsdj_m00]--></g></svg>