<svg xmlns="http://www.w3.org/2000/svg" xmlns:xlink="http://www.w3.org/1999/xlink" contentStyleType="text/css" height="660px" preserveAspectRatio="none" style="width:1285px;height:660px;background:#FEFEFE;" version="1.1" viewBox="0 0 1285 660" width="1285px" zoomAndPan="magnify"><defs/><g><rect fill="#FEFEFE" height="660" style="stroke:none;stroke-width:1.0;" width="1285" x="0" y="0"/><text fill="#000000" font-family="Verdana" font-size="22" font-weight="bold" lengthAdjust="spacing" textLength="497" x="389.5" y="35.4209">Understanding the Communication Gap</text><!--cluster external--><g id="cluster_external"><rect fill="#FFFFFF" height="241.14" rx="2.5" ry="2.5" style="stroke:#000000;stroke-width:1.0;" width="372" x="107" y="413.2094"/><text fill="#000000" font-family="Verdana" font-size="14" font-weight="bold" lengthAdjust="spacing" textLength="134" x="226" y="428.2045">What Others See</text><text fill="#000000" font-family="Verdana" font-size="14" font-weight="bold" lengthAdjust="spacing" textLength="143" x="221.5" y="444.5014">(Objective Reality)</text></g><!--cluster internal--><g id="cluster_internal"><rect fill="#FFFFFF" height="289.6" rx="2.5" ry="2.5" style="stroke:#000000;stroke-width:1.0;" width="376" x="12" y="58.6094"/><text fill="#000000" font-family="Verdana" font-size="14" font-weight="bold" lengthAdjust="spacing" textLength="105" x="147.5" y="73.6045">What's Inside</text><text fill="#000000" font-family="Verdana" font-size="14" font-weight="bold" lengthAdjust="spacing" textLength="151" x="124.5" y="89.9014">(Subjective Reality)</text></g><!--cluster bridge--><g id="cluster_bridge"><rect fill="#ADD8E6" height="113.3" rx="2.5" ry="2.5" style="stroke:#000000;stroke-width:1.0;" width="638" x="606" y="234.9094"/><text fill="#000000" font-family="Verdana" font-size="14" font-weight="bold" lengthAdjust="spacing" textLength="211" x="819.5" y="249.9045">The Puppet Method Bridge</text></g><!--entity No speech--><g id="elem_No speech"><rect fill="#FFC0CB" height="46.2969" rx="2.5" ry="2.5" style="stroke:#000000;stroke-width:1.0;" width="115" x="130.5" y="472.2094"/><rect fill="#FFC0CB" height="10" style="stroke:#000000;stroke-width:1.0;" width="15" x="225.5" y="477.2094"/><rect fill="#FFC0CB" height="2" style="stroke:#000000;stroke-width:1.0;" width="4" x="223.5" y="479.2094"/><rect fill="#FFC0CB" height="2" style="stroke:#000000;stroke-width:1.0;" width="4" x="223.5" y="483.2094"/><text fill="#000000" font-family="Verdana" font-size="14" lengthAdjust="spacing" textLength="75" x="145.5" y="505.2045">No speech</text></g><!--entity Limited gestures--><g id="elem_Limited gestures"><rect fill="#FFC0CB" height="46.2969" rx="2.5" ry="2.5" style="stroke:#000000;stroke-width:1.0;" width="155" x="280.5" y="472.2094"/><rect fill="#FFC0CB" height="10" style="stroke:#000000;stroke-width:1.0;" width="15" x="415.5" y="477.2094"/><rect fill="#FFC0CB" height="2" style="stroke:#000000;stroke-width:1.0;" width="4" x="413.5" y="479.2094"/><rect fill="#FFC0CB" height="2" style="stroke:#000000;stroke-width:1.0;" width="4" x="413.5" y="483.2094"/><text fill="#000000" font-family="Verdana" font-size="14" lengthAdjust="spacing" textLength="115" x="295.5" y="505.2045">Limited gestures</text></g><!--entity Unusual behaviors--><g id="elem_Unusual behaviors"><rect fill="#FFC0CB" height="46.2969" rx="2.5" ry="2.5" style="stroke:#000000;stroke-width:1.0;" width="167" x="130.5" y="584.0494"/><rect fill="#FFC0CB" height="10" style="stroke:#000000;stroke-width:1.0;" width="15" x="277.5" y="589.0494"/><rect fill="#FFC0CB" height="2" style="stroke:#000000;stroke-width:1.0;" width="4" x="275.5" y="591.0494"/><rect fill="#FFC0CB" height="2" style="stroke:#000000;stroke-width:1.0;" width="4" x="275.5" y="595.0494"/><text fill="#000000" font-family="Verdana" font-size="14" lengthAdjust="spacing" textLength="127" x="145.5" y="617.0445">Unusual behaviors</text></g><!--entity Rich thoughts--><g id="elem_Rich thoughts"><rect fill="#90EE90" height="46.2969" rx="2.5" ry="2.5" style="stroke:#000000;stroke-width:1.0;" width="137" x="36.5" y="117.6094"/><rect fill="#90EE90" height="10" style="stroke:#000000;stroke-width:1.0;" width="15" x="153.5" y="122.6094"/><rect fill="#90EE90" height="2" style="stroke:#000000;stroke-width:1.0;" width="4" x="151.5" y="124.6094"/><rect fill="#90EE90" height="2" style="stroke:#000000;stroke-width:1.0;" width="4" x="151.5" y="128.6094"/><text fill="#000000" font-family="Verdana" font-size="14" lengthAdjust="spacing" textLength="97" x="51.5" y="150.6045">Rich thoughts</text></g><!--entity Deep feelings--><g id="elem_Deep feelings"><rect fill="#90EE90" height="46.2969" rx="2.5" ry="2.5" style="stroke:#000000;stroke-width:1.0;" width="136" x="209" y="117.6094"/><rect fill="#90EE90" height="10" style="stroke:#000000;stroke-width:1.0;" width="15" x="325" y="122.6094"/><rect fill="#90EE90" height="2" style="stroke:#000000;stroke-width:1.0;" width="4" x="323" y="124.6094"/><rect fill="#90EE90" height="2" style="stroke:#000000;stroke-width:1.0;" width="4" x="323" y="128.6094"/><text fill="#000000" font-family="Verdana" font-size="14" lengthAdjust="spacing" textLength="96" x="224" y="150.6045">Deep feelings</text></g><!--entity Full identity--><g id="elem_Full identity"><rect fill="#90EE90" height="46.2969" rx="2.5" ry="2.5" style="stroke:#000000;stroke-width:1.0;" width="117" x="46.5" y="277.9094"/><rect fill="#90EE90" height="10" style="stroke:#000000;stroke-width:1.0;" width="15" x="143.5" y="282.9094"/><rect fill="#90EE90" height="2" style="stroke:#000000;stroke-width:1.0;" width="4" x="141.5" y="284.9094"/><rect fill="#90EE90" height="2" style="stroke:#000000;stroke-width:1.0;" width="4" x="141.5" y="288.9094"/><text fill="#000000" font-family="Verdana" font-size="14" lengthAdjust="spacing" textLength="77" x="61.5" y="310.9045">Full identity</text></g><!--entity Puppet expressions--><g id="elem_Puppet expressions"><rect fill="#FFFFFF" height="46.2969" rx="2.5" ry="2.5" style="stroke:#000000;stroke-width:1.0;" width="178" x="649" y="277.9094"/><rect fill="#FFFFFF" height="10" style="stroke:#000000;stroke-width:1.0;" width="15" x="807" y="282.9094"/><rect fill="#FFFFFF" height="2" style="stroke:#000000;stroke-width:1.0;" width="4" x="805" y="284.9094"/><rect fill="#FFFFFF" height="2" style="stroke:#000000;stroke-width:1.0;" width="4" x="805" y="288.9094"/><text fill="#000000" font-family="Verdana" font-size="14" lengthAdjust="spacing" textLength="138" x="664" y="310.9045">Puppet expressions</text></g><!--entity Design choices--><g id="elem_Design choices"><rect fill="#FFFFFF" height="46.2969" rx="2.5" ry="2.5" style="stroke:#000000;stroke-width:1.0;" width="147" x="862.5" y="277.9094"/><rect fill="#FFFFFF" height="10" style="stroke:#000000;stroke-width:1.0;" width="15" x="989.5" y="282.9094"/><rect fill="#FFFFFF" height="2" style="stroke:#000000;stroke-width:1.0;" width="4" x="987.5" y="284.9094"/><rect fill="#FFFFFF" height="2" style="stroke:#000000;stroke-width:1.0;" width="4" x="987.5" y="288.9094"/><text fill="#000000" font-family="Verdana" font-size="14" lengthAdjust="spacing" textLength="107" x="877.5" y="310.9045">Design choices</text></g><!--entity Interaction patterns--><g id="elem_Interaction patterns"><rect fill="#FFFFFF" height="46.2969" rx="2.5" ry="2.5" style="stroke:#000000;stroke-width:1.0;" width="175" x="1044.5" y="277.9094"/><rect fill="#FFFFFF" height="10" style="stroke:#000000;stroke-width:1.0;" width="15" x="1199.5" y="282.9094"/><rect fill="#FFFFFF" height="2" style="stroke:#000000;stroke-width:1.0;" width="4" x="1197.5" y="284.9094"/><rect fill="#FFFFFF" height="2" style="stroke:#000000;stroke-width:1.0;" width="4" x="1197.5" y="288.9094"/><text fill="#000000" font-family="Verdana" font-size="14" lengthAdjust="spacing" textLength="135" x="1059.5" y="310.9045">Interaction patterns</text></g><g id="elem_GMN17"><path d="M986,467.6494 L986,523.0478 A0,0 0 0 0 986,523.0478 L1278,523.0478 A0,0 0 0 0 1278,523.0478 L1278,477.6494 L1268,467.6494 L1136,467.6494 L1132,324.4894 L1128,467.6494 L986,467.6494 A0,0 0 0 0 986,467.6494 " fill="#FFFFFF" style="stroke:#000000;stroke-width:1.0;"/><path d="M1268,467.6494 L1268,477.6494 L1278,477.6494 L1268,467.6494 " fill="#FFFFFF" style="stroke:#000000;stroke-width:1.0;"/><text fill="#000000" font-family="Verdana" font-size="13" lengthAdjust="spacing" textLength="271" x="992" y="484.7163">The puppet becomes a translator between</text><text fill="#000000" font-family="Verdana" font-size="13" lengthAdjust="spacing" textLength="244" x="992" y="499.8491">the rich internal world and what others</text><text fill="#000000" font-family="Verdana" font-size="13" lengthAdjust="spacing" textLength="183" x="992" y="514.9819">can observe and understand</text></g><!--link internal to external--><!--link internal to bridge--><g id="link_internal_bridge"><path d="M388.264,142.3613 C388.542,142.3854 388.8264,142.4104 389.1172,142.4363 C389.6986,142.4881 390.3052,142.5435 390.9363,142.6028 C392.1984,142.7213 393.5583,142.8552 395.01,143.0063 C397.9132,143.3083 401.1832,143.6786 404.7711,144.1306 C419.1228,145.9388 438.5619,149.0544 459.9663,154.3369 C502.775,164.9019 553.445,184.1344 587,218.9094 C593.3925,225.5319 598.2725,233.7063 601.9977,242.2923 C602.9289,244.4389 603.7881,246.6111 604.5806,248.7913 C604.9768,249.8814 605.3565,250.9734 605.7201,252.0653 C605.811,252.3382 604.0418,246.9065 604.1307,247.1794 " fill="none" id="internal-to-bridge" style="stroke:#000000;stroke-width:1.0;"/><polygon fill="#000000" points="605.9899,252.8841,607.0043,243.0876,604.4406,248.1301,599.398,245.5664,605.9899,252.8841" style="stroke:#000000;stroke-width:1.0;"/><text fill="#000000" font-family="Verdana" font-size="13" lengthAdjust="spacing" textLength="119" x="579.49" y="206.9763">Expresses through</text></g><!--link bridge to external--><g id="link_bridge_external"><path d="M605.9147,325.3568 C605.8404,325.5482 605.7657,325.7403 605.6905,325.9331 C605.5401,326.3187 605.3878,326.7068 605.2338,327.0973 C604.9257,327.8783 604.6104,328.6689 604.288,329.4677 C603.6433,331.0655 602.9703,332.6963 602.2703,334.3494 C600.8702,337.6557 599.3618,341.0514 597.7545,344.4509 C594.54,351.25 590.93,358.0644 587,364.2094 C566.455,396.3394 538.0325,428.3694 514.4638,452.6144 C502.6794,464.7369 492.1084,474.9131 484.3423,482.1825 C482.4008,483.9998 485.0527,481.5759 483.4867,483.0149 " fill="none" id="bridge-to-external" style="stroke:#000000;stroke-width:1.0;"/><polygon fill="#000000" points="479.0685,487.0745,488.4021,483.9305,482.7503,483.6915,482.9893,478.0397,479.0685,487.0745" style="stroke:#000000;stroke-width:1.0;"/><text fill="#000000" font-family="Verdana" font-size="13" lengthAdjust="spacing" textLength="84" x="580.16" y="385.2763">Makes visible</text></g><!--SRC=[VLFDRjim3BxxARZqiEsG5-XXXtPjKQ1TY_vWXtK7skPiBZ8bY5JIODYxZqg3OCc2mHSP_2H-F-Gx6saYI05P6bsm9CmuGOlTOiYnI7yUGynmSdbHlwOnja3mB3rbDPIUPG1_0ixZD1NX3esZm1McfidKEM9m-EphY0PtZiiAZqGlyk6k_UbbNX8y40QszSSPe0Az6cN10ByQW2vEAGg9mUnB14r4tJY3atkMnNxrXYSswc4WjP99ZuAUfMZnbriQSSanxr2__w7wNk5QbFjAzB4SPyfodEa3TwCx4iimMcrnmtwuoaIoZ_jCbE07KN07_uUxB260Kn5tVhsFS-8x5lDl8_UE-fvhVVvfvsGZqGWy4s-qW5DuojXp3SalwLgD9dsHA64D4w6wUqwU5QhwFL-UFEJxaX8Pt9Bhw-4iSp_GnensSzoIEmk53btPtgJNvF6eTzVPeHtAWq0tHkxei7XTLMAt6Qs4LeKvP4- -AzwIE8MBjowaBYNN89fjQVwNBuwxnOLZbgpS1XUxCQgDPd7ozbLlUcFTadDn989b50relX4jsUejh3h-kQQ-OxEAEVJWsm6hElXnC_XL4Wh4LYdxCDLgsQrHG_vR2Vm1]--></g></svg>